<svg width="22" height="23" viewBox="0 0 22 23" fill="none" xmlns="http://www.w3.org/2000/svg">
<path d="M14.4371 0C10.7704 0 6.87402 1.31126 6.87402 3.73604V6.72799C6.87402 7.13906 7.18038 7.47728 7.56332 7.47728C7.94147 7.47728 8.25261 7.14426 8.25261 6.72799V5.94748C9.71257 6.94653 12.1203 7.47208 14.4419 7.47208C16.7635 7.47208 19.1712 6.94653 20.6312 5.94748V6.72799C20.6312 7.45647 18.9414 8.62723 15.7582 8.91342C15.3801 8.94464 15.0977 9.30888 15.1312 9.71994C15.1599 10.1102 15.4615 10.4068 15.8157 10.4068C15.8348 10.4068 15.854 10.4068 15.8731 10.4016C17.6634 10.2403 19.4488 9.73555 20.6264 8.91862V9.71994C20.6264 10.36 19.3818 11.2758 17.0698 11.718C16.6965 11.7909 16.4475 12.1759 16.5146 12.5818C16.572 12.946 16.864 13.201 17.1895 13.201C17.2278 13.201 17.2709 13.1958 17.3092 13.1906C18.7069 12.9252 19.827 12.4829 20.6264 11.9314V12.7119C20.6264 13.3519 19.3818 14.2677 17.0698 14.71C16.6965 14.7828 16.4475 15.1679 16.5146 15.5738C16.572 15.938 16.864 16.193 17.1895 16.193C17.2278 16.193 17.2709 16.1878 17.3092 16.1826C18.7069 15.9172 19.827 15.4749 20.6264 14.9233V15.7038C20.6264 16.3439 19.3818 17.2597 17.0698 17.702C16.6965 17.7748 16.4475 18.1599 16.5146 18.5657C16.572 18.93 16.864 19.1849 17.1895 19.1849C17.2278 19.1849 17.2709 19.1797 17.3092 19.1745C18.7069 18.9091 19.827 18.4669 20.6264 17.9153V18.6958C20.6264 19.4243 18.9367 20.595 15.7535 20.8812C15.3753 20.9124 15.0929 21.2767 15.1264 21.6878C15.1551 22.078 15.4567 22.3746 15.8109 22.3746C15.83 22.3746 15.8492 22.3746 15.8683 22.3694C18.9223 22.0936 22.0002 20.85 22.0002 18.6958V3.74124C22.0002 1.31126 18.1038 0 14.4371 0ZM14.4371 6.02553C10.6173 6.02553 8.18081 4.66224 8.18081 3.73083C8.18081 2.79943 10.6173 1.43093 14.4371 1.43093C18.2569 1.43093 20.6934 2.79422 20.6934 3.72563C20.6934 4.65704 18.2569 6.02553 14.4371 6.02553Z" fill="#909090"/>
<path d="M7.56311 8.97061C3.89644 8.97061 0 10.2819 0 12.7067V18.6854C0 21.1154 3.89644 22.4214 7.56311 22.4214C11.2298 22.4214 15.1262 21.1102 15.1262 18.6854V12.7067C15.1262 10.2819 11.2298 8.97061 7.56311 8.97061ZM13.9439 18.6177C13.9439 19.5595 11.4548 20.9332 7.55832 20.9332C3.66189 20.9332 1.17755 19.5595 1.17755 18.6177V17.8164C2.6806 18.8467 5.16972 19.393 7.56311 19.393C9.9565 19.393 12.4408 18.8519 13.9487 17.8164V18.6177H13.9439ZM13.963 15.6206C13.963 16.5676 11.4691 17.9413 7.56311 17.9413C3.6571 17.9413 1.1584 16.5676 1.1584 15.6206V14.814C2.66624 15.8495 5.16015 16.3907 7.55832 16.3907C9.9565 16.3907 12.4504 15.8443 13.9582 14.814V15.6206H13.963ZM7.56311 14.9493C3.7289 14.9493 1.28764 13.6016 1.28764 12.6754C1.28764 11.7492 3.73369 10.4015 7.56311 10.4015C11.3925 10.4015 13.8386 11.7492 13.8386 12.6754C13.8386 13.6016 11.3925 14.9493 7.56311 14.9493Z" fill="#909090"/>
</svg>
