<svg width="30" height="30" viewBox="0 0 30 30" fill="none" xmlns="http://www.w3.org/2000/svg">
<path fill-rule="evenodd" clip-rule="evenodd" d="M14.3698 21.9541C15.3225 22.064 16.2422 21.9724 17.0923 21.7232C19.9174 20.8948 21.995 18.2961 22.0317 15.2136H23.8784C23.981 15.2136 24.036 15.0853 23.9737 15.001L21.1816 11.2001C21.1339 11.1378 21.0386 11.1378 20.9947 11.2001L18.2025 14.9974C18.1402 15.0853 18.1952 15.21 18.2978 15.21H20.1409C20.1079 17.2369 18.8584 18.9669 17.0923 19.7109C16.4254 19.9932 15.6889 20.1361 14.9157 20.0958C13.8531 20.0408 12.8747 19.6413 12.0833 19.0109C11.6619 18.6737 11.0463 18.7543 10.7275 19.1905C10.4234 19.6046 10.5077 20.1837 10.9107 20.5026C11.8854 21.2833 13.0726 21.8038 14.3698 21.9541ZM17.9167 10.9802C17.1289 10.3461 16.1469 9.9466 15.0843 9.89529C14.3075 9.85497 13.571 10.0016 12.9077 10.2801C11.1416 11.0242 9.8884 12.7542 9.85909 14.7811H11.7022C11.8048 14.7811 11.8598 14.9094 11.7975 14.9937L9.00533 18.7946C8.95769 18.8569 8.86242 18.8569 8.81845 18.7946L6.02631 14.9974C5.96402 14.9094 6.01898 14.7848 6.12158 14.7848H7.96835C8.00133 11.7023 10.0789 9.09992 12.9077 8.27523C13.7578 8.02599 14.6775 7.93803 15.6302 8.04432C16.9274 8.19093 18.1146 8.7114 19.0893 9.49211C19.4923 9.81465 19.5766 10.3901 19.2725 10.8043C18.9537 11.2368 18.3381 11.3174 17.9167 10.9802Z" fill="#909090"/>
</svg>
