<svg width="18" height="18" viewBox="0 0 18 18" fill="none" xmlns="http://www.w3.org/2000/svg">
<path fill-rule="evenodd" clip-rule="evenodd" d="M16.8686 9.46971C16.8514 9.52885 16.8309 9.58457 16.8077 9.642C16.7683 9.73714 16.7186 9.82885 16.6629 9.91885C16.6346 9.96342 16.614 10.0106 16.5823 10.0517C16.1897 10.5874 15.51 11.0023 14.6863 11.1943V11.2586C14.6863 11.592 14.4163 11.862 14.0829 11.862C13.752 11.862 13.4811 11.5929 13.4811 11.2586V6.74057C13.4811 6.408 13.7503 6.138 14.0829 6.138C14.4154 6.138 14.6863 6.40628 14.6863 6.74057V6.80571C15.51 6.99685 16.1897 7.41171 16.5823 7.94742C16.614 7.98857 16.6346 8.03657 16.6629 8.08028C16.7186 8.17028 16.7683 8.262 16.8077 8.358C16.8309 8.41457 16.8514 8.46943 16.8686 8.52942C16.914 8.682 16.9449 8.838 16.9449 9C16.9449 9.162 16.914 9.31714 16.8686 9.46971ZM3.91629 6.138C3.91801 6.138 3.91972 6.13885 3.92058 6.13885C3.92229 6.13885 3.92401 6.138 3.92572 6.138C4.25915 6.138 4.52829 6.408 4.52829 6.74057V11.2586C4.52829 11.5929 4.25743 11.862 3.92572 11.862C3.92401 11.862 3.92229 11.8603 3.92143 11.8603C3.91972 11.8603 3.91801 11.862 3.91629 11.862C3.58458 11.862 3.31372 11.5929 3.31372 11.2586V11.1909C2.52 11.0049 1.86258 10.6106 1.46743 10.1006C1.39115 10.0097 1.33286 9.90942 1.27715 9.804C1.25829 9.768 1.23686 9.73285 1.22058 9.696C1.18029 9.60685 1.14772 9.51685 1.12286 9.42085C1.10401 9.34628 1.09543 9.27085 1.08601 9.19457C1.07915 9.12857 1.05429 9.06771 1.05429 9C1.05429 8.93228 1.07915 8.87142 1.08601 8.80542C1.09543 8.72914 1.10401 8.65285 1.12286 8.57828C1.14772 8.48228 1.18029 8.39228 1.22058 8.30314C1.23686 8.26628 1.25743 8.23114 1.27715 8.19514C1.33286 8.09057 1.39115 7.98943 1.46743 7.89857C1.86258 7.38943 2.52 6.99428 3.31372 6.80828V6.74057C3.31372 6.408 3.58286 6.138 3.91629 6.138ZM6.17572 15.7406C6.50829 15.7406 6.77829 16.0106 6.77829 16.3431C6.77829 16.6749 6.50829 16.9449 6.17572 16.9449C5.84315 16.9449 5.57315 16.6749 5.57315 16.3431C5.57315 16.0106 5.84315 15.7406 6.17572 15.7406ZM15.7234 6.26057C15.4757 2.76686 12.5554 0 9 0C5.44457 0 2.52343 2.76686 2.27657 6.26057C0.982286 6.50143 0 7.63714 0 9V11.8243C0 14.4557 2.02457 16.6226 4.59857 16.8497C4.81286 17.5166 5.43943 18 6.17571 18C7.08943 18 7.83257 17.256 7.83257 16.3431C7.83257 15.4294 7.08943 14.6854 6.17571 14.6854C5.45486 14.6854 4.84029 15.1483 4.61314 15.7911C2.61514 15.5751 1.05429 13.8789 1.05429 11.8243V11.1806C1.41771 11.4694 1.85486 11.67 2.33314 11.7489C2.448 12.1251 2.90571 12.9163 3.91629 12.9163C4.824 12.9163 5.57314 12.1826 5.57314 11.2586V6.74057C5.57314 5.83114 4.83857 5.08286 3.91629 5.08286C3.79114 5.08286 3.66771 5.09743 3.54771 5.12486C4.24629 2.77371 6.426 1.05429 9 1.05429C11.574 1.05429 13.7537 2.77371 14.4514 5.12486C14.3323 5.09743 14.2089 5.08286 14.0829 5.08286C13.1751 5.08286 12.426 5.81743 12.426 6.74057V11.2586C12.426 12.168 13.1614 12.9163 14.0829 12.9163C15.0977 12.9163 15.5511 12.1243 15.6669 11.7489C16.9886 11.5311 18 10.3817 18 9C18 7.63714 17.0169 6.50143 15.7234 6.26057Z" fill="#909090"/>
</svg>
