<svg width="26" height="25" viewBox="0 0 26 25" fill="none" xmlns="http://www.w3.org/2000/svg">
<path d="M1.14282 1.21428H5.42854L8.29997 15.5607C8.39794 16.054 8.6663 16.4971 9.05805 16.8125C9.4498 17.1278 9.94 17.2953 10.4428 17.2857H20.8571C21.3599 17.2953 21.8501 17.1278 22.2419 16.8125C22.6336 16.4971 22.902 16.054 23 15.5607L24.7143 6.57142H6.49997M10.7857 22.6428C10.7857 23.2346 10.306 23.7143 9.71425 23.7143C9.12252 23.7143 8.64282 23.2346 8.64282 22.6428C8.64282 22.0511 9.12252 21.5714 9.71425 21.5714C10.306 21.5714 10.7857 22.0511 10.7857 22.6428ZM22.5714 22.6428C22.5714 23.2346 22.0917 23.7143 21.5 23.7143C20.9082 23.7143 20.4285 23.2346 20.4285 22.6428C20.4285 22.0511 20.9082 21.5714 21.5 21.5714C22.0917 21.5714 22.5714 22.0511 22.5714 22.6428Z" stroke="#202020" stroke-width="2.2" stroke-linecap="round" stroke-linejoin="round"/>
</svg>
